<?xml version="1.0" encoding="UTF-8"?>
<svg width="256px" height="549px" viewBox="0 0 256 549" version="1.1" xmlns="http://www.w3.org/2000/svg" preserveAspectRatio="xMidYMid">
    <g>
        <path d="M175.622190192,530.44729957 L165.059394201,501.857575705 C164.898459581,501.058762437 164.060453196,500.651052141 163.262699115,500.811471486 C162.464945033,500.972890831 161.927736469,501.677467197 161.927736469,502.475765189 L161.927736469,546.41324159 C161.927736469,547.347639 161.182467213,548.103258118 160.237069803,548.103258118 L146.001629872,548.103258118 C145.056232462,548.103258118 144.310963206,547.347639 144.310963206,546.41324159 L144.310963206,456.976724694 C144.310963206,456.042327284 145.056232462,455.286708166 146.001629872,455.286708166 L160.237069803,455.286708166 C161.182467213,455.286708166 161.927736469,456.042327284 161.927736469,456.976724694 L161.927736469,486.857575705 C161.927736469,487.655873697 162.464945033,488.360450063 163.262699115,488.521869408 C164.060453196,488.682773477 164.898459581,488.275578457 165.059394201,487.476249913 L175.622190192,458.886525048 C175.944619805,457.952127638 176.851333299,457.357131935 177.850647573,457.357131935 L193.815621858,457.357131935 C195.222101441,457.357131935 196.182467213,458.751708166 195.654743373,460.066515052 L180.259394201,502.475765189 C179.892868761,503.381963407 179.892868761,504.417639 180.259394201,505.323837218 L195.654743373,547.733087355 C196.182467213,549.047894241 195.222101441,550.442470472 193.815621858,550.442470472 L177.850647573,550.442470472 C176.851333299,550.442470472 175.944619805,549.847474769 175.622190192,548.913077359 L175.622190192,530.44729957 Z M133.748167213,456.976724694 L133.748167213,546.41324159 C133.748167213,547.347639 133.002897957,548.103258118 132.057500547,548.103258118 L117.822060616,548.103258118 C116.876663206,548.103258118 116.13139395,547.347639 116.13139395,546.41324159 L116.13139395,456.976724694 C116.13139395,456.042327284 116.876663206,455.286708166 117.822060616,455.286708166 L132.057500547,455.286708166 C133.002897957,455.286708166 133.748167213,456.042327284 133.748167213,456.976724694 Z M105.568597957,456.976724694 L105.568597957,546.41324159 C105.568597957,547.347639 104.823328701,548.103258118 103.877931291,548.103258118 L89.642491359,548.103258118 C88.697093949,548.103258118 87.951824693,547.347639 87.951824693,546.41324159 L87.951824693,456.976724694 C87.951824693,456.042327284 88.697093949,455.286708166 89.642491359,455.286708166 L103.877931291,455.286708166 C104.823328701,455.286708166 105.568597957,456.042327284 105.568597957,456.976724694 Z M77.3890287,456.976724694 L77.3890287,546.41324159 C77.3890287,547.347639 76.6437594439,548.103258118 75.6983620339,548.103258118 L61.4629221019,548.103258118 C60.5175246919,548.103258118 59.7722554359,547.347639 59.7722554359,546.41324159 L59.7722554359,456.976724694 C59.7722554359,456.042327284 60.5175246919,455.286708166 61.4629221019,455.286708166 L75.6983620339,455.286708166 C76.6437594439,455.286708166 77.3890287,456.042327284 77.3890287,456.976724694 Z" fill="#001E2B"></path>
        <path d="M127.334870473,0.0137577642745 C163.781267213,-0.3272422357255 193.815621858,30.5137577643 193.815621858,67.5137577643 C193.815621858,104.513757764 163.781267213,135.354257764 127.334870473,135.013257764 C90.8884737329,134.672257764 60.8540287,103.827757764 60.8540287,66.8277577643 C60.8540287,29.8277577643 90.8884737329,-0.0127422357255 127.334870473,0.0137577642745 Z" fill="#10AA50"></path>
        <path d="M127.334870473,135.013257764 C90.8884737329,134.672257764 60.8540287,103.827757764 60.8540287,66.8277577643 C60.8540287,29.8277577643 90.8884737329,-0.0127422357255 127.334870473,0.0137577642745" fill="#B8C4C2"></path>
        <path d="M127.334870473,135.013257764 C163.781267213,135.354257764 193.815621858,104.513757764 193.815621858,67.5137577643 C193.815621858,30.5137577643 163.781267213,-0.3272422357255 127.334870473,0.0137577642745" fill="#12924F"></path>
    </g>
</svg> 