<?xml version="1.0" encoding="UTF-8"?>
<svg width="256px" height="256px" viewBox="0 0 256 256" version="1.1" xmlns="http://www.w3.org/2000/svg" preserveAspectRatio="xMidYMid">
    <g>
        <path d="M210.483381,73.8236374 C207.827698,72.9095503 205.075867,72.0446761 202.24247,71.2267368 C202.708172,69.3261098 203.135596,67.4500894 203.515631,65.6059664 C209.753843,35.3248922 205.675082,10.9302478 191.747328,2.89849283 C178.392359,-4.80289661 156.551327,3.22703567 134.492936,22.4237776 C132.371761,24.2697233 130.244662,26.2241201 128.118477,28.2723861 C126.701777,26.917204 125.287358,25.6075897 123.876584,24.3549348 C100.758745,3.82852863 77.5866802,-4.82157937 63.6725966,3.23341515 C50.3303869,10.9571328 46.3792156,33.8904224 51.9945178,62.5880206 C52.5367729,65.3599011 53.1706189,68.1905639 53.8873982,71.068617 C50.6078941,71.9995641 47.4418534,72.9920277 44.4125156,74.0478303 C17.3093297,83.497195 0,98.3066828 0,113.667995 C0,129.533287 18.5815786,145.446423 46.8116526,155.095373 C49.0394553,155.856809 51.3511025,156.576778 53.7333796,157.260293 C52.9600965,160.37302 52.2875179,163.423318 51.7229345,166.398431 C46.3687351,194.597975 50.5500231,216.989464 63.8566899,224.664425 C77.6012619,232.590464 100.66852,224.443422 123.130185,204.809231 C124.905501,203.257196 126.687196,201.611293 128.472081,199.886102 C130.785552,202.113904 133.095375,204.222319 135.392897,206.199955 C157.14963,224.922338 178.637969,232.482469 191.932332,224.786092 C205.663234,216.837268 210.125675,192.78347 204.332202,163.5181 C203.88974,161.283006 203.374826,158.99961 202.796573,156.675661 C204.416503,156.196743 206.006814,155.702335 207.557482,155.188332 C236.905331,145.46465 256,129.745175 256,113.667995 C256,98.2510906 238.132466,83.3418093 210.483381,73.8236374 Z" fill="#00D8FF"></path>
        <path d="M201.345395,142.849324 C199.916151,143.311064 198.46335,143.759895 196.988715,144.193627 C194.605293,134.80557 190.982154,124.883468 186.313341,114.664608 C190.741971,104.72631 194.227772,95.0317558 196.528363,85.8276666 C199.196751,86.5906731 201.78335,87.4061131 204.267815,88.2720064 C228.094582,96.6573556 243.110389,109.354455 243.110389,113.667995 C243.110389,118.34627 227.071456,131.850922 201.345395,142.849324 Z M193.063081,161.805595 C195.025225,172.050384 195.741258,181.425636 195.063141,189.21378 C194.474926,196.25772 192.868162,201.322008 190.597126,203.80612 C185.709855,208.179553 171.740818,203.740608 155.302237,189.339283 C153.200983,187.478665 151.100489,185.472604 149.008696,183.340016 C155.818276,175.620062 162.619485,166.398037 169.259016,155.999377 C180.051449,154.830985 190.128549,153.077676 199.090192,150.806121 C199.611855,152.91667 200.082274,154.993959 200.493071,157.029003 C201.397311,158.82163 192.098897,161.541432 193.063081,161.805595 Z M79.6936667,203.327264 C74.8901802,205.489957 71.1792335,205.586323 68.9082341,203.105535 C64.0274968,198.71417 61.8180977,178.352018 66.6190444,152.988791 C67.1396048,150.226271 67.7493591,147.398801 68.4444693,144.521212 C77.2835768,146.657039 87.2405152,148.296198 98.0475668,149.390567 C104.73742,159.658167 111.688649,168.797248 118.566767,176.491923 C116.918177,178.086955 115.274752,179.607924 113.639469,181.050068 C101.889871,191.066659 88.2336136,200.32719 79.6936667,203.327264 Z M53.5936285,142.832026 C40.7891486,137.025867 30.1362686,129.897198 22.9359492,122.707356 C16.5536265,116.384646 13.1106051,110.415277 13.1106051,106.667995 C13.1106051,102.346545 27.6138058,89.8272313 51.0900123,81.5523062 C53.8381825,80.5891779 56.7287162,79.6876412 59.7409216,78.8462589 C62.0749075,88.2002436 65.5332058,98.0571661 69.9649214,108.10754 C65.4929675,118.327392 61.9656487,128.397759 59.5988561,137.891732 C57.5682181,137.280369 55.5790223,136.635595 53.5936285,142.832026 Z M66.8203765,62.2659925 C61.8046035,36.4205283 63.8936796,15.7792802 68.7493216,11.2925546 C73.9961763,6.45579618 89.2995899,11.5063556 107.150955,27.2402867 C108.45877,28.4076503 109.768108,29.6120773 111.077456,30.8525772 C104.240226,38.4825906 97.4834437,47.4406097 91.0092202,57.4466444 C80.5495011,58.6419737 70.6041563,60.3680202 61.5091507,62.5705104 C60.8581631,59.8246233 60.2853116,57.1250767 65.8203765,62.2659925 Z M150.46623,91.2872538 C148.367816,87.5145546 146.212377,83.7909598 144.010544,80.1327358 C151.038982,81.0267556 157.764514,82.1788341 164.095623,83.5785896 C161.976496,90.3990498 159.364769,97.5250737 156.312512,104.819667 C154.391471,100.359379 152.41592,95.8572773 150.46623,91.2872538 Z M105.687503,52.9143559 C110.512691,58.5910626 115.41292,64.6843778 120.322404,71.1300127 C115.373133,70.9330645 110.321273,70.8319334 105.200659,70.8319334 C100.12397,70.8319334 95.1173534,70.9290119 90.2309327,71.1177512 C95.1429672,64.7371087 100.063876,58.6754251 105.687503,52.9143559 Z M60.7424932,91.3367308 C58.8321772,95.8445584 56.9588657,100.352188 55.1456118,104.83859 C52.1270159,97.5398131 49.5305093,90.3789301 47.4088665,83.5130534 C53.7167091,82.1352828 60.4172988,80.9965547 67.4138893,80.1063324 C65.2001474,83.7914291 62.9990414,87.5248834 60.7424932,91.3367308 Z M67.5536164,147.095774 C60.3187551,146.256569 53.4677851,145.161645 47.0896753,143.819617 C49.2634212,136.810215 51.9359823,129.479649 55.0293276,121.995272 C56.8488226,126.491878 58.7600832,131.009661 60.7717174,135.533657 C62.8105168,140.133411 64.9265545,144.685679 67.5536164,147.095774 Z M105.874922,174.834874 C100.913368,169.060464 95.9310422,162.898429 91.0033095,156.340522 C95.7831658,156.487556 100.702894,156.563474 105.749893,156.563474 C110.952117,156.563474 116.079419,156.467146 121.111641,156.285338 C116.224306,163.021657 111.194584,169.219264 105.874922,174.834874 Z M156.438678,122.258197 C159.680361,129.81476 162.439362,137.119924 164.637217,144.033372 C158.16916,145.448155 151.211685,146.609395 143.896154,147.50006 C146.497519,144.999414 149.097041,142.399631 151.680878,139.696406 C153.366359,135.144815 154.96365,130.578329 156.438678,122.258197 Z M142.305747,133.989712 C138.30416,139.59391 134.17082,145.02841 129.928003,150.270195 C122.722724,150.800416 115.347164,151.067166 107.888509,151.067166 C100.486926,151.067166 93.2087429,150.829678 86.1035316,150.365747 C81.7299025,145.069044 77.4965558,139.557639 73.4421239,133.874365 C69.4016575,128.212992 65.5828772,122.433378 61.9986632,116.567363 C65.5707139,110.705 69.3784848,104.929565 73.4097378,99.2730137 L73.4097378,99.2730137 C77.4261327,93.6553001 81.6097732,88.1718771 85.9192607,82.8773727 C93.2301447,82.3443995 100.715141,82.0664015 108.272672,82.0664015 L108.272672,82.0664015 C115.857355,82.0664015 123.343048,82.3465523 130.664752,82.8840712 C134.927856,88.1434265 139.068749,93.5828461 143.064425,99.1681252 C147.079577,104.780621 150.905063,110.501406 154.516019,116.290464 C150.945642,122.181229 147.151133,128.015299 142.305747,133.989712 L142.305747,133.989712 Z M190.27489,24.211277 C195.552691,29.0672831 197.452646,51.0900323 191.79709,78.5535874 C191.45538,80.1689812 191.073081,81.8199931 190.654833,83.4924305 C181.535935,81.2579368 171.571087,79.4997437 160.944331,78.2867635 C154.443313,67.3376548 147.630469,57.2728901 140.77172,48.3964126 C142.751442,46.4976205 144.730485,44.6772606 146.703272,42.9489948 C165.785415,25.8420402 185.295881,19.6778841 190.27489,24.211277 Z" fill="#00D8FF"></path>
    </g>
</svg> 